<?xml version="1.0" encoding="utf-8"?>
<!-- Generator: Adobe Illustrator 23.0.0, SVG Export Plug-In . SVG Version: 6.00 Build 0)  -->
<svg version="1.1" id="Calque_1" xmlns="http://www.w3.org/2000/svg" xmlns:xlink="http://www.w3.org/1999/xlink" x="0px" y="0px"
	 viewBox="0 0 454.53 136.64" style="enable-background:new 0 0 454.53 136.64;" xml:space="preserve">
<style type="text/css">
	.st0{fill:#FFFFFF;}
</style>
<g>
	<path class="st0" d="M68.32,0C30.59,0,0,30.59,0,68.32s30.59,68.32,68.32,68.32c37.73,0,68.32-30.59,68.32-68.32S106.05,0,68.32,0z
		 M98.07,98.35c-0.38,0.62-0.99,1.07-1.69,1.34c-1.08,0.41-3.9,0.64-6.25-0.84c-0.8-0.5-1.63-0.94-2.51-1.31
		c-2.22-0.92-5.21-2.75-11.68-4.56c-7.21-2.01-18.16-3.04-27.37-2.1c-0.66,0.07-4.16,0.45-4.86,0.53c-2.48,0.27-3.94,0.04-9.39,1.56
		c-1.34,0.37-3.48,0.28-4.78-0.22c-0.62-0.24-1.12-0.43-1.55-1.17c-0.15-0.26-0.08-0.6-0.16-0.9c-0.28-1.03-0.71-3.51,1.37-4.76
		c0,0,1.15-0.95,2.14-1.1c0,0,11.73-2.87,19.3-2.91l10.21,0.03c0,0,20.76,0.82,35.17,9.58c0.68,0.41,1.25,0.97,1.68,1.62
		C98.47,94.35,99.3,96.35,98.07,98.35z M106.22,80.37c-0.45,0.75-1.16,1.31-1.98,1.61c-1.71,0.62-4.59,0.73-7.25-1.13
		c-0.91-0.64-1.88-1.18-2.89-1.64c-2.57-1.16-7.4-3.2-14.17-5.38c-8.35-2.7-20.54-3.97-31.06-3.41c-0.77,0.04-4.84,0.48-5.66,0.57
		c-2.99,0.3-4.77,0.58-11.68,2.59c-1.34,0.39-2.77,0.26-4.03-0.34c-0.94-0.45-1.95-1.16-2.55-2.28c-0.17-0.33-0.08-0.74-0.17-1.1
		c-0.31-1.26-0.76-4.32,1.68-5.82c0,0,1.35-1.15,2.51-1.32c0,0,13.68-3.33,22.38-2.72l11.85,0.2c0,0,24.19,0.81,40.77,11.79
		c0.78,0.52,1.44,1.21,1.92,2.02C106.76,75.47,107.69,77.94,106.22,80.37z M115.1,59.17c0,0-4.74,4.95-9.19,0.92
		c0,0-9.05-6.08-21.28-8.27c-11.62-2.08-27.15-3.46-36.36-2.3c-0.7,0.09-1.75,0.25-2.9,0.28c-2.75,0.07-9.07,0.41-17.31,2.81
		c-1.56,0.46-3.23,0.36-4.72-0.3c-1.11-0.49-2.31-1.28-3.03-2.54c-0.21-0.37-0.11-0.84-0.22-1.25c-0.39-1.43-0.99-4.9,1.83-6.67
		c0,0,1.56-1.34,2.9-1.56c0,0,15.91-4.1,26.09-3.61l13.86-0.04c0,0,29.34,0.39,48.99,13.19C113.76,49.84,119.77,54.15,115.1,59.17z"
		/>
	<path class="st0" d="M186.58,63.44c0,0-18.45-2.12-13.79-11.77c0,0,2.65-6.83,15.69-2.51c0,0,4.35,1.66,8.91,5.27l6.79-9.76
		c0,0-9.76-8.62-22.91-8.02c0,0-14.63-0.04-19.51,10.14c0,0-5.09,9.12,0,17.71c0,0,4.45,8.06,20.08,10.18c0,0,11.54,2.45,11.39,6.98
		c-0.01,0.34-0.01,0.69,0.06,1.03c0.27,1.3,0.41,4.93-5.97,6.74c0,0-7.53,1.91-14.53-1.8c0,0-5.41-2.65-8.17-5.73l-7.32,8.02
		c0,0,1.7,5.13,13.26,9.27c0,0,10.5,3.82,20.25,1.38c0,0,9.97-1.7,14.42-12.19c0,0,2.76-10.71-2.44-16.44
		C202.81,71.92,198.46,65.35,186.58,63.44z"/>
	<path class="st0" d="M237.06,51.35c0,0-10.6,0.32-14.95,7.21l-0.1-5.72l-12.1-0.21v61.29H222V94.51c0,0,9.01,10.18,21,5.73
		c0,0,14.95-4.88,15.69-19.62c0,0,2.23-12.09-4.98-21.31C253.71,59.3,247.56,51.46,237.06,51.35z M234.16,90.62
		c-6.97,0-12.62-6.35-12.62-14.19s5.65-14.19,12.62-14.19c6.97,0,12.62,6.35,12.62,14.19S241.13,90.62,234.16,90.62z"/>
	<path class="st0" d="M287.47,51.35c-14.17,0-25.66,11.19-25.66,24.99c0,13.8,11.49,24.99,25.66,24.99
		c14.17,0,25.66-11.19,25.66-24.99C313.13,62.54,301.64,51.35,287.47,51.35z M287.16,90.69c-7.33,0-13.27-6.37-13.27-14.22
		c0-7.86,5.94-14.22,13.27-14.22c7.33,0,13.27,6.37,13.27,14.22C300.43,84.33,294.49,90.69,287.16,90.69z"/>
	<path class="st0" d="M331.17,39.9H319.3v12.41h-5.83v10.92h5.89l-0.09,25.98c1.26,10.38,7.67,11.23,10.62,11.93
		c0.57,0.14,1.15,0.19,1.74,0.18c7.92-0.21,11.91-3.26,11.91-3.26V87.35c-10.92,5.78-11.88-1.01-11.88-1.01V63.23l11.88,0.11V52.41
		l-12.25,0.05L331.17,39.9z"/>
	<ellipse class="st0" cx="354.59" cy="39.32" rx="7.71" ry="7.86"/>
	<rect x="348.4" y="52.31" class="st0" width="12.42" height="47.75"/>
	<path class="st0" d="M414.26,84.54l-12.41-32.24h-18.24c-0.74-1.06,0.11-4.45,0.11-4.45c1.59-5.09,11.98-1.48,11.98-1.48
		l-0.11-10.39c-5.2-2.97-14.32-0.85-14.32-0.85c-11.13,1.8-10.07,17.18-10.07,17.18h-5.83v11.03l5.83,0.11v36.61h12.3V63.44
		l9.54-0.11l15.06,36.27c-2.12,6.81-12.09,2.33-12.09,2.33l-4.35,9.12c4.77,3.92,11.77,3.39,11.77,3.39
		c9.65,0.42,14.1-8.38,14.1-8.38l20.78-53.76h-12.62L414.26,84.54z"/>
	<path class="st0" d="M446.85,52.13c-4.24,0-7.68,3.44-7.68,7.68s3.44,7.68,7.68,7.68c4.24,0,7.68-3.44,7.68-7.68
		S451.09,52.13,446.85,52.13z M446.85,66.55c-3.63,0-6.57-2.94-6.57-6.57c0-3.63,2.94-6.57,6.57-6.57s6.57,2.94,6.57,6.57
		C453.43,63.61,450.49,66.55,446.85,66.55z"/>
	<path class="st0" d="M450.54,58.26c0,0-0.01-2.11-1.96-2.56h-4.72v8.14h1.43v-2.86l1.9-0.01l1.48,2.78l1.87,0.01V62.9l-1.92-2.4
		C448.62,60.5,450.51,60.25,450.54,58.26z M448.64,59.06c-0.23,0.28-0.58,0.43-0.94,0.43h-2.4v-2.35h2.3c0.46,0,0.9,0.21,1.16,0.59
		C449.12,58.27,448.91,58.74,448.64,59.06z"/>
</g>
</svg>
